<svg width="296" height="200" viewBox="0 0 296 200" fill="none" xmlns="http://www.w3.org/2000/svg">
<path d="M200 100C200 155.228 155.228 200 100 200C44.7715 200 0 155.228 0 100C0 44.7715 44.7715 0 100 0C155.228 0 200 44.7715 200 100Z" fill="#FFB703"/>
<path d="M173.065 100C173.065 124.853 149.018 145 119.355 145C89.6918 145 65.6451 124.853 65.6451 100C65.6451 75.1472 89.6918 55 119.355 55C149.018 55 173.065 75.1472 173.065 100Z" fill="white"/>
<path d="M296 100C296 155.228 250.781 200 195 200C139.219 200 94 155.228 94 100C94 44.7715 139.219 0 195 0C250.781 0 296 44.7715 296 100Z" fill="#FFB703"/>
<rect x="106" width="90" height="200" fill="#FFB703"/>
<path d="M244 100C244 130.928 219.376 156 189 156C158.624 156 134 130.928 134 100C134 69.0721 158.624 44 189 44C219.376 44 244 69.0721 244 100Z" fill="white"/>
<path d="M173 100C173 130.928 145.913 156 112.5 156C79.0868 156 52 130.928 52 100C52 69.0721 79.0868 44 112.5 44C145.913 44 173 69.0721 173 100Z" fill="white"/>
<rect x="109.465" y="44" width="75.2512" height="112" fill="white"/>
</svg>
